# xmcd
#
# Track frame offsets:
#        150
#        15647
#        29050
#        44542
#        59025
#        73357
#        87467
#        101750
#        123397
#        145227
#        162047
#        176860
#        193507
#        205255
#        222145
#        233465
#        248310
#        260555
#
# Disc length: 3734 seconds
#
# Revision: 0
# Processed by: cddbd v1.5.1PL0 Copyright (c) Steve Scherf et al.
# Submitted via: ExactAudioCopy v0.95a5
#
DISCID=0c0e9412
DTITLE=B.J. Thomas - The Best of B.J. Thomas
DYEAR=2000
DGENRE=Country
TTITLE0=Whatever Happened To Old Fashioned Love
TTITLE1=New Looks From An Old Lover
TTITLE2=Two Car Garage
TTITLE3=The Great American Dream
TTITLE4=The Whole World's In Love When you're Lonely
TTITLE5=I Want Everyone To Cry
TTITLE6=The Girl Most Likely To
TTITLE7=We Almost had It All
TTITLE8=Broken Toys
TTITLE9=The Part Of Me That Needs You Most
TTITLE10=Bad News
TTITLE11=My Elusive Dreams
TTITLE12=Make The World Go Away
TTITLE13=Night Life
TTITLE14=He'll Have To Go
TTITLE15=Don't Worry
TTITLE16=Am I That Easy to Forget
TTITLE17=As Long as We Got Each Other
EXTD=
EXTT0=
EXTT1=
EXTT2=
EXTT3=
EXTT4=
EXTT5=
EXTT6=
EXTT7=
EXTT8=
EXTT9=
EXTT10=
EXTT11=
EXTT12=
EXTT13=
EXTT14=
EXTT15=
EXTT16=
EXTT17=
PLAYORDER=
